<svg xmlns="http://www.w3.org/2000/svg" width="32" height="31.992" viewBox="0 0 32 31.992"><defs><style>.a{fill:#303f9f;}</style></defs><g transform="translate(-0.001 -0.068)"><g transform="translate(0.001 0.068)"><g transform="translate(0 0)"><path class="a" d="M31.992,13.907a2.793,2.793,0,0,0-.974-1.92L28.25,9.615V2.873a.937.937,0,0,0-.937-.937h-3.75a.927.927,0,0,0-.925.937V4.793L17.894.75a2.8,2.8,0,0,0-3.657,0L.984,11.987a2.811,2.811,0,0,0-.3,3.967,2.842,2.842,0,0,0,3.084.819V31.122a.927.927,0,0,0,.925.937H27.313a.937.937,0,0,0,.937-.937V16.773a2.812,2.812,0,0,0,3.742-2.867ZM24.5,3.81h1.887v4.2L24.5,6.4ZM19.826,30.185H12.188V22.673h7.637Zm6.562,0h-4.7V21.748a.937.937,0,0,0-.937-.937h-9.5a.927.927,0,0,0-.925.937v8.437h-4.7V15.425L16.06,6.574l10.328,8.842V30.185ZM29.9,14.732a.938.938,0,0,1-1.322.1l-11.9-10.2a.937.937,0,0,0-1.217,0L3.425,14.834A.938.938,0,0,1,2.2,13.413L15.453,2.174a.933.933,0,0,1,1.221,0L29.8,13.411A.939.939,0,0,1,29.9,14.732Z" transform="translate(-0.001 -0.068)"/></g></g><g transform="translate(12.201 11.31)"><path class="a" d="M201.882,179.938h-5.75a.927.927,0,0,0-.925.937V186.5a.927.927,0,0,0,.925.937h5.75a.937.937,0,0,0,.937-.937v-5.625A.937.937,0,0,0,201.882,179.938Zm-.925,5.625h-3.887v-3.75h3.887Z" transform="translate(-195.207 -179.938)"/></g><g transform="translate(16.063 24.56)"><circle class="a" cx="0.937" cy="0.937" r="0.937"/></g></g></svg>