<svg xmlns="http://www.w3.org/2000/svg" width="32" height="32" viewBox="0 0 32 32"><defs><style>.a{fill:none;}.b{fill:#303f9f;}</style></defs><path class="a" d="M0,0H32V32H0Z"/><path class="b" d="M7,3H3V7A4,4,0,0,0,7,3ZM17.667,3H15A12,12,0,0,1,3,15v2.667A14.667,14.667,0,0,0,17.667,3ZM12.333,3H9.667A6.669,6.669,0,0,1,3,9.667v2.667A9.327,9.327,0,0,0,12.333,3Zm0,24H15A12,12,0,0,1,27,15V12.333A14.675,14.675,0,0,0,12.333,27ZM23,27h4V23A4,4,0,0,0,23,27Zm-5.333,0h2.667A6.669,6.669,0,0,1,27,20.333V17.667A9.327,9.327,0,0,0,17.667,27Z" transform="translate(1 1)"/></svg>