<svg xmlns="http://www.w3.org/2000/svg" width="32" height="29.5" viewBox="0 0 32 29.5"><defs><style>.a{fill:#303f9f;}</style></defs><path class="a" d="M28.25,0H3.75A3.754,3.754,0,0,0,0,3.75v22A3.754,3.754,0,0,0,3.75,29.5h24.5A3.754,3.754,0,0,0,32,25.75v-22A3.754,3.754,0,0,0,28.25,0ZM3.75,2.5h24.5A1.251,1.251,0,0,1,29.5,3.75V7.5H2.5V3.75A1.251,1.251,0,0,1,3.75,2.5ZM28.25,27H3.75A1.251,1.251,0,0,1,2.5,25.75V10h27V25.75A1.251,1.251,0,0,1,28.25,27ZM4.375,5a1.25,1.25,0,1,1,1.25,1.25A1.25,1.25,0,0,1,4.375,5ZM8.75,5A1.25,1.25,0,1,1,10,6.25,1.25,1.25,0,0,1,8.75,5Zm12.915,6.616L26.049,16l-4.384,4.384L19.9,18.616l1.366-1.366H14.688v-2.5h6.576L19.9,13.384ZM10.737,19.75h6.451v2.5H10.737L12.1,23.616l-1.768,1.768L5.951,21l4.384-4.384L12.1,18.384Zm0,0"/></svg>