<svg xmlns="http://www.w3.org/2000/svg" width="26.5" height="32" viewBox="0 0 26.5 32"><defs><style>.a{fill:#303f9f;}</style></defs><g transform="translate(-44.001)"><g transform="translate(56.626 9.5)"><g transform="translate(0)"><path class="a" d="M255.626,152h-9a.625.625,0,1,0,0,1.25h9a.625.625,0,1,0,0-1.25Z" transform="translate(-246.001 -152)"/></g></g><g transform="translate(62.997 12.5)"><path class="a" d="M349.008,200.184a.625.625,0,1,0,.183.442A.63.63,0,0,0,349.008,200.184Z" transform="translate(-347.941 -200.001)"/></g><g transform="translate(56.625 2.688)"><g transform="translate(0)"><path class="a" d="M247.058,43.184a.625.625,0,1,0,.183.442A.63.63,0,0,0,247.058,43.184Z" transform="translate(-245.991 -43.001)"/></g></g><g transform="translate(56.626 12.5)"><g transform="translate(0)"><path class="a" d="M250.368,200h-3.742a.625.625,0,0,0,0,1.25h3.742a.625.625,0,0,0,0-1.25Z" transform="translate(-246.001 -200)"/></g></g><g transform="translate(56.626 16.25)"><g transform="translate(0)"><path class="a" d="M255.626,260h-9a.625.625,0,0,0,0,1.25h9a.625.625,0,0,0,0-1.25Z" transform="translate(-246.001 -260)"/></g></g><g transform="translate(62.997 19.25)"><path class="a" d="M349.008,308.184a.625.625,0,1,0,.183.442A.63.63,0,0,0,349.008,308.184Z" transform="translate(-347.941 -308.001)"/></g><g transform="translate(56.626 19.25)"><g transform="translate(0)"><path class="a" d="M250.368,308h-3.742a.625.625,0,0,0,0,1.25h3.742a.625.625,0,0,0,0-1.25Z" transform="translate(-246.001 -308)"/></g></g><g transform="translate(56.626 23)"><g transform="translate(0)"><path class="a" d="M255.626,368h-9a.625.625,0,0,0,0,1.25h9a.625.625,0,0,0,0-1.25Z" transform="translate(-246.001 -368)"/></g></g><g transform="translate(62.997 26)"><path class="a" d="M349.008,416.184a.625.625,0,1,0,.183.442A.63.63,0,0,0,349.008,416.184Z" transform="translate(-347.941 -416.001)"/></g><g transform="translate(56.626 26)"><g transform="translate(0)"><path class="a" d="M250.368,416h-3.742a.625.625,0,1,0,0,1.25h3.742a.625.625,0,0,0,0-1.25Z" transform="translate(-246.001 -416)"/></g></g><g transform="translate(44.001)"><g transform="translate(0)"><path class="a" d="M67.454,2.438H62.68a3.829,3.829,0,0,0-2.649-1.063h-.547a2.5,2.5,0,0,0-4.465,0H54.47a3.829,3.829,0,0,0-2.649,1.063H47.048A3.051,3.051,0,0,0,44,5.485V28.953A3.051,3.051,0,0,0,47.048,32H67.454A3.051,3.051,0,0,0,70.5,28.953V5.485A3.051,3.051,0,0,0,67.454,2.438ZM54.47,2.625h.974a.625.625,0,0,0,.6-.459,1.25,1.25,0,0,1,2.409,0,.625.625,0,0,0,.6.459h.973A2.6,2.6,0,0,1,62.615,5H51.885A2.6,2.6,0,0,1,54.47,2.625ZM69.251,28.953a1.8,1.8,0,0,1-1.8,1.8H47.048a1.8,1.8,0,0,1-1.8-1.8V5.485a1.8,1.8,0,0,1,1.8-1.8h3.9a3.821,3.821,0,0,0-.319,1.531v.406a.625.625,0,0,0,.625.625h12a.625.625,0,0,0,.625-.625V5.219a3.821,3.821,0,0,0-.319-1.531h3.9a1.8,1.8,0,0,1,1.8,1.8Z" transform="translate(-44.001)"/></g></g><g transform="translate(47.83 9.167)"><g transform="translate(0)"><path class="a" d="M110.708,146.85a.625.625,0,0,0-.884,0l-2.673,2.673-.823-.823a.625.625,0,1,0-.884.884l1.265,1.265a.625.625,0,0,0,.884,0l3.115-3.115A.625.625,0,0,0,110.708,146.85Z" transform="translate(-105.261 -146.667)"/></g></g><g transform="translate(48.126 23)"><path class="a" d="M113.626,368h-3a.625.625,0,0,0-.625.625v3a.625.625,0,0,0,.625.625h3a.625.625,0,0,0,.625-.625v-3A.625.625,0,0,0,113.626,368ZM113,371h-1.75v-1.75H113Z" transform="translate(-110.001 -368)"/></g><g transform="translate(48.126 16.25)"><path class="a" d="M113.626,260h-3a.625.625,0,0,0-.625.625v3a.625.625,0,0,0,.625.625h3a.625.625,0,0,0,.625-.625v-3A.625.625,0,0,0,113.626,260ZM113,263h-1.75v-1.75H113Z" transform="translate(-110.001 -260)"/></g></g></svg>